<svg width="40" height="40" viewBox="0 0 40 40" fill="none" xmlns="http://www.w3.org/2000/svg">
<path d="M12.5 30C13.3346 27.1589 15.0001 23.3333 20.0001 23.3333C25.0001 23.3333 27.1656 27.1589 28.0002 30M23.4723 17.5014C23.4723 19.4352 21.9177 21.0028 20.0001 21.0028C18.0824 21.0028 16.5278 19.4352 16.5278 17.5014C16.5278 15.5676 18.0824 14 20.0001 14C21.9177 14 23.4723 15.5676 23.4723 17.5014Z" stroke="#B9B9BE" stroke-width="1.8"/>
<path d="M20.0005 9.1333C24.4579 9.13336 28.4596 10.3997 31.3257 12.4058C34.1944 14.4139 35.8667 17.1119 35.8667 20.0005C35.8666 22.889 34.195 25.5863 31.3267 27.5942C28.4608 29.6004 24.459 30.8666 20.0005 30.8667C15.5418 30.8667 11.5393 29.6005 8.67334 27.5942C5.80507 25.5863 4.13343 22.889 4.1333 20.0005C4.1333 18.0875 4.86249 16.2666 6.18506 14.6685C8.88205 11.4101 14.0132 9.1333 20.0005 9.1333Z" stroke="#B9B9BE" stroke-width="1.6" stroke-miterlimit="10"/>
</svg>
