<svg width="40" height="40" viewBox="0 0 40 40" fill="none" xmlns="http://www.w3.org/2000/svg">
<path d="M4 20C4 17.8122 4.78096 15.7601 6.14632 13.9923C8.91455 10.4087 14.0811 8 20 8C28.8355 8 36 13.3732 36 20C36 26.6268 28.8373 32 20 32C11.1627 32 4 26.6268 4 20Z" fill="#111111"/>
<path d="M19.927 16.0725C20.4814 15.5667 20.9537 14.9937 21.5681 14.6007C23.4554 13.3928 26.3654 14.0895 27.4481 15.9488C28.3648 17.5224 28.1446 19.4835 26.7497 20.8479C25.8951 21.6848 24.8804 22.3888 23.9217 23.1347C22.769 24.0315 21.5942 24.9048 20.4374 25.798C20.1712 26.0036 19.947 26.0963 19.6348 25.8617C17.9537 24.5919 16.2605 23.3366 14.5814 22.0631C13.5487 21.2809 12.6381 20.4149 12.2218 19.1997C11.4353 16.9039 12.8042 14.5789 15.3219 14.1077C17.2132 13.753 18.7082 14.3242 19.7649 15.8487C19.833 15.947 19.905 16.0434 19.927 16.0725Z" fill="white"/>
</svg>
