<svg width="40" height="40" viewBox="0 0 40 40" fill="none" xmlns="http://www.w3.org/2000/svg">
<path d="M25.9957 15.0048V25H18.2026C15.8659 25 14.291 23.6418 14.291 21.7575C14.291 20.2989 15.2625 18.8594 17.3081 18.5007L14 15.0574L14.0385 15H16.9016L19.893 18.2712H23.6377V15H26L25.9957 15.0048ZM18.4722 22.9292H23.6334V20.3467H18.4722C17.3338 20.3467 16.5934 20.7915 16.5934 21.6475C16.5934 22.5036 17.3338 22.934 18.4722 22.934V22.9292Z" fill="#B9B9BE"/>
<path d="M20 9C24.2222 9 28.0064 10.2856 30.7129 12.3154C33.4191 14.3451 35 17.072 35 20C35 22.9281 33.4198 25.656 30.7139 27.6855C28.0077 29.7152 24.223 31 20 31C15.777 31 11.9923 29.7152 9.28613 27.6855C6.58021 25.656 5 22.9281 5 20C5 18.0602 5.69009 16.2186 6.9375 14.6035C9.48103 11.3108 14.328 9 20 9Z" stroke="#B9B9BE" stroke-width="2" stroke-miterlimit="10"/>
</svg>
